<?xml version="1.0" encoding="UTF-8"?><svg id="Ebene_1" xmlns="http://www.w3.org/2000/svg" viewBox="0 0 622.06 410.61"><defs><style>.cls-1{fill:#403f3f;}.cls-2{fill:#3c3c3c;}.cls-3{fill:#3f3f3e;}.cls-4{fill:#96c2a0;}.cls-5{fill:#3e3e3d;}.cls-6{fill:#b09ac9;}.cls-7{fill:#f6b657;}.cls-8{fill:#e888a6;}.cls-9{fill:#5192d2;}</style></defs><path class="cls-5" d="M425.58,280.03l-.75,58.82c-.15,11.87-7.1,20.92-18.28,21.98-10.56,1-21.87-6.3-22.01-18.68l-.71-60.76c-.14-11.92-9.92-21.13-19.97-21.35-10.93-.24-21.79,8.54-21.95,21.27l-.77,60.44c-.15,11.91-10.28,19.15-20.17,19.07-12.03-.09-19.97-9.39-19.9-21.99l.32-61.32c.16-29.66,20.37-51.12,48.95-55.23,20.61-2.96,41.24-.27,56.4,16.78,12.57-13.46,29.16-18.6,47.5-17.75,30.27,1.39,52.05,24.04,53.45,54.43l.31,63.15c.06,11.61-7.03,20.38-17.95,21.76-9.1,1.15-21.96-4.78-22.12-16.39l-.87-62.63c-.17-11.92-9.11-21.2-19.46-21.71-10.08-.5-21.85,7.38-22.01,20.11Z"/><path class="cls-3" d="M263.64,243l-.3,56.68c-.1,20.01-10,39.62-26.67,50.82-23.84,16.03-56.32,15.31-79.56-1.38-14.69-10.55-23.96-27.9-24.15-46l-.64-60.87c-.12-11.29,9.96-18.7,19.27-19.32,10.26-.68,21.16,7.29,21.37,19.14l.99,53.99c.26,14.43,10.92,25.27,24.04,25.21,12.41-.06,24.28-10.34,24.59-24.69l1.17-54.37c.24-11.22,9.57-18.42,19.07-18.96,10.31-.58,20.88,7.1,20.82,19.74Z"/><path class="cls-2" d="M86.06,360.87c-33.96,3.18-55.09-22.89-55.05-55.58l.17-133.87c.01-11.65,10.58-19.77,19.76-20.23,10.03-.5,20.95,6.59,20.98,18.36l.34,135.4c0,4.02,3.14,10.68,5.46,13.12,2.68,2.82,10.16,4,14.82,4.56,10.5,1.28,14.12,11.63,13.26,20.64-.88,9.16-8.06,16.5-19.73,17.59Z"/><path class="cls-1" d="M590.76,341.03c0,11.43-9.86,19.08-18.53,19.78-9.59.77-22.32-5.12-22.34-16.87l-.2-99.8c-.02-11.83,9.02-19.78,19.24-20.55s21.76,6.97,21.77,19.34l.06,98.1Z"/><circle class="cls-9" cx="570.29" cy="180.61" r="20.76"/><circle class="cls-7" cx="370.7" cy="63.28" r="14.77"/><circle class="cls-8" cx="260.88" cy="63.46" r="14.73"/><circle class="cls-6" cx="158.1" cy="102.27" r="14.14"/><circle class="cls-4" cx="472.8" cy="102.28" r="14.11"/></svg>